<?xml version="1.0" standalone="no"?><!DOCTYPE svg PUBLIC "-//W3C//DTD SVG 1.1//EN" "http://www.w3.org/Graphics/SVG/1.1/DTD/svg11.dtd"><svg width="100%" height="100%" viewBox="0 0 1311 921" version="1.1" xmlns="http://www.w3.org/2000/svg" xmlns:xlink="http://www.w3.org/1999/xlink" xml:space="preserve" style="fill-rule:evenodd;clip-rule:evenodd;stroke-linejoin:round;stroke-miterlimit:1.41421;"><g id="Layer1"><g><path d="M164,403.066c-6.4,8.4 -16.3,12.6 -29.7,12.6c-13.4,0 -23.1,-4.45 -29.1,-13.35c-6,-8.9 -9,-19.85 -9,-32.85l24,0c0,15.8 4.7,23.7 14.1,23.7c5,0 8.8,-1.95 11.4,-5.85c2.6,-3.9 3.9,-8.85 3.9,-14.85c0,-9.6 -4.4,-17.25 -13.2,-22.95c-8.8,-5.7 -19.1,-8.55 -30.9,-8.55c-20.8,0 -37.5,7.95 -50.1,23.85c-12.6,15.9 -18.9,35.95 -18.9,60.15c0,24.2 6.3,44.25 18.9,60.15c12.6,15.9 29.25,23.85 49.95,23.85c20.7,0 39.25,-8.6 55.65,-25.8l18.3,15c-17.8,23.2 -42,34.8 -72.6,34.8c-30.6,0 -54.45,-9.95 -71.55,-29.85c-17.1,-19.9 -25.65,-45.75 -25.65,-77.55c0,-31.8 8.6,-57.85 25.8,-78.15c17.2,-20.3 40.6,-30.45 70.2,-30.45c18.2,0 34.1,5.15 47.7,15.45c13.6,10.3 20.4,23.65 20.4,40.05c0,12 -3.2,22.2 -9.6,30.6Z" style="fill:#fff;fill-rule:nonzero;"/><path d="M236.6,532.966c-13.8,0 -24.6,-3.95 -32.4,-11.85c-7.8,-7.9 -11.7,-18.5 -11.7,-31.8c0,-13.3 5.2,-24.45 15.6,-33.45c10.4,-9 25.8,-13.5 46.2,-13.5l32.7,0l0,-15.3c0,-18.4 -8.8,-27.6 -26.4,-27.6c-14.8,0 -28.4,1.8 -40.8,5.4l0,20.1l-21,0l0,-35.7c9,-3.8 19.65,-6.8 31.95,-9c12.3,-2.2 22.55,-3.3 30.75,-3.3c16,0 28.5,4.55 37.5,13.65c9,9.1 13.5,21.25 13.5,36.45l0,84.9l24.6,0l0,12.6c-7.4,4.6 -15.9,6.9 -25.5,6.9c-9.6,0 -16.1,-1.6 -19.5,-4.8c-3.4,-3.2 -5.1,-8.6 -5.1,-16.2c-15,15 -31.8,22.5 -50.4,22.5ZM239.3,510.466c17.2,0 33.1,-9.7 47.7,-29.1l0,-19.2l-33,0c-12.2,0 -21.25,2.4 -27.15,7.2c-5.9,4.8 -8.85,10.85 -8.85,18.15c0,7.3 1.8,12.95 5.4,16.95c3.6,4 8.9,6 15.9,6Z" style="fill:#fff;fill-rule:nonzero;"/><path d="M346.1,399.466l0,-19.5l42.9,0l4.2,18.3c12,-14.2 27.4,-21.3 46.2,-21.3c18.8,0 33.3,7.25 43.5,21.75c10.2,14.5 15.3,33.1 15.3,55.8c0,22.7 -6,41.45 -18,56.25c-12,14.8 -29.1,22.2 -51.3,22.2c-10.4,0 -21.8,-2 -34.2,-6l0,48l23.1,0l0,19.5l-71.7,0l0,-19.5l23.1,0l0,-175.5l-23.1,0ZM462.8,415.366c-6.6,-10.6 -15.85,-15.9 -27.75,-15.9c-11.9,0 -21.6,4.7 -29.1,14.1c-7.5,9.4 -11.25,20.7 -11.25,33.9l0,53.7c10.8,6.2 21.5,9.3 32.1,9.3c13.8,0 24.9,-4.95 33.3,-14.85c8.4,-9.9 12.6,-23.1 12.6,-39.6c0,-16.5 -3.3,-30.05 -9.9,-40.65Z" style="fill:#fff;fill-rule:nonzero;"/><path d="M561.8,532.966c-13.8,0 -24.6,-3.95 -32.4,-11.85c-7.8,-7.9 -11.7,-18.5 -11.7,-31.8c0,-13.3 5.2,-24.45 15.6,-33.45c10.4,-9 25.8,-13.5 46.2,-13.5l32.7,0l0,-15.3c0,-18.4 -8.8,-27.6 -26.4,-27.6c-14.8,0 -28.4,1.8 -40.8,5.4l0,20.1l-21,0l0,-35.7c9,-3.8 19.65,-6.8 31.95,-9c12.3,-2.2 22.55,-3.3 30.75,-3.3c16,0 28.5,4.55 37.5,13.65c9,9.1 13.5,21.25 13.5,36.45l0,84.9l24.6,0l0,12.6c-7.4,4.6 -15.9,6.9 -25.5,6.9c-9.6,0 -16.1,-1.6 -19.5,-4.8c-3.4,-3.2 -5.1,-8.6 -5.1,-16.2c-15,15 -31.8,22.5 -50.4,22.5ZM564.5,510.466c17.2,0 33.1,-9.7 47.7,-29.1l0,-19.2l-33,0c-12.2,0 -21.25,2.4 -27.15,7.2c-5.9,4.8 -8.85,10.85 -8.85,18.15c0,7.3 1.8,12.95 5.4,16.95c3.6,4 8.9,6 15.9,6Z" style="fill:#fff;fill-rule:nonzero;"/><path d="M693.95,399.016c12.1,-14.7 28.25,-22.05 48.45,-22.05c20.2,0 37.1,4.1 50.7,12.3l0,35.7l-21,0l0,-20.1c-8.6,-3.6 -17.7,-5.4 -27.3,-5.4c-13.8,0 -24.5,5.2 -32.1,15.6c-7.6,10.4 -11.4,23.7 -11.4,39.9c0,16.2 3.8,29.5 11.4,39.9c7.6,10.4 18.3,15.6 32.1,15.6c7.8,0 14.9,-0.95 21.3,-2.85c6.4,-1.9 10.7,-3.5 12.9,-4.8c2.2,-1.3 5.6,-3.55 10.2,-6.75l11.1,16.8c-14.2,13.4 -32.45,20.1 -54.75,20.1c-22.3,0 -39.5,-7.35 -51.6,-22.05c-12.1,-14.7 -18.15,-33.35 -18.15,-55.95c0,-22.6 6.05,-41.25 18.15,-55.95Z" style="fill:#fff;fill-rule:nonzero;"/><path d="M817.1,399.466l0,-19.5l48.6,0l0,130.5l26.1,0l0,19.5l-75,0l0,-19.5l23.4,0l0,-111l-23.1,0ZM841.4,348.466c-2.8,-3.2 -4.2,-7.05 -4.2,-11.55c0,-4.5 1.55,-8.45 4.65,-11.85c3.1,-3.4 6.85,-5.1 11.25,-5.1c4.4,0 8,1.6 10.8,4.8c2.8,3.2 4.2,7.05 4.2,11.55c0,4.5 -1.55,8.45 -4.65,11.85c-3.1,3.4 -6.85,5.1 -11.25,5.1c-4.4,0 -8,-1.6 -10.8,-4.8Z" style="fill:#fff;fill-rule:nonzero;"/><path d="M905.3,399.466l0,-16.5l23.1,-3l3,0c6.4,-15 10.7,-28.2 12.9,-39.6l12.6,0l0,39.6l44.7,0l0,19.5l-44.7,0l0,92.1c0,6.8 1.15,11.7 3.45,14.7c2.3,3 6.25,4.5 11.85,4.5c5.6,0 13.1,-1.9 22.5,-5.7l9.9,17.1c-11.4,7.2 -23.6,10.8 -36.6,10.8c-13,0 -22.35,-3.4 -28.05,-10.2c-5.7,-6.8 -8.55,-15.6 -8.55,-26.4l0,-96.9l-26.1,0Z" style="fill:#fff;fill-rule:nonzero;"/><path d="M1021.1,454.966c0,-22.6 6.3,-41.25 18.9,-55.95c12.6,-14.7 30.3,-22.05 53.1,-22.05c22.8,0 40.5,7.35 53.1,22.05c12.6,14.7 18.9,33.35 18.9,55.95c0,22.6 -6.3,41.25 -18.9,55.95c-12.6,14.7 -30.3,22.05 -53.1,22.05c-22.8,0 -40.5,-7.35 -53.1,-22.05c-12.6,-14.7 -18.9,-33.35 -18.9,-55.95ZM1046.6,454.966c0,16.2 4.1,29.5 12.3,39.9c8.2,10.4 19.6,15.6 34.2,15.6c14.6,0 26,-5.2 34.2,-15.6c8.2,-10.4 12.3,-23.7 12.3,-39.9c0,-16.2 -4.1,-29.5 -12.3,-39.9c-8.2,-10.4 -19.6,-15.6 -34.2,-15.6c-14.6,0 -26,5.2 -34.2,15.6c-8.2,10.4 -12.3,23.7 -12.3,39.9Z" style="fill:#fff;fill-rule:nonzero;"/><path d="M1230.2,510.466l26.1,0l0,19.5l-74.7,0l0,-19.5l23.1,0l0,-111l-23.1,0l0,-19.5l42.9,0l3.6,15.9c6.8,-3.8 12.3,-6.75 16.5,-8.85c4.2,-2.1 10.25,-4.3 18.15,-6.6c7.9,-2.3 15.55,-3.45 22.95,-3.45l16.8,4.5l-6.9,24.6l-13.5,-3.6c-16.8,0 -34.1,4.2 -51.9,12.6l0,95.4Z" style="fill:#fff;fill-rule:nonzero;"/><g><rect x="9.5" y="643.674" width="1293" height="29.923" style="fill:#ffbc44;"/><rect x="641.5" y="643.674" width="29" height="266.491" style="fill:#ffbc44;"/></g><g><rect x="9.5" y="240.568" width="1293" height="29.923" style="fill:#ffbc44;"/><rect x="641.5" y="4" width="29" height="266.491" style="fill:#ffbc44;"/></g></g></g></svg>