<?xml version="1.0" standalone="no"?><!DOCTYPE svg PUBLIC "-//W3C//DTD SVG 1.1//EN" "http://www.w3.org/Graphics/SVG/1.1/DTD/svg11.dtd"><svg width="100%" height="100%" viewBox="0 0 1311 1062" version="1.1" xmlns="http://www.w3.org/2000/svg" xmlns:xlink="http://www.w3.org/1999/xlink" xml:space="preserve" style="fill-rule:evenodd;clip-rule:evenodd;stroke-linejoin:round;stroke-miterlimit:1.41421;"><g id="Layer1"><g><path d="M164,403.066c-6.4,8.4 -16.3,12.6 -29.7,12.6c-13.4,0 -23.1,-4.45 -29.1,-13.35c-6,-8.9 -9,-19.85 -9,-32.85l24,0c0,15.8 4.7,23.7 14.1,23.7c5,0 8.8,-1.95 11.4,-5.85c2.6,-3.9 3.9,-8.85 3.9,-14.85c0,-9.6 -4.4,-17.25 -13.2,-22.95c-8.8,-5.7 -19.1,-8.55 -30.9,-8.55c-20.8,0 -37.5,7.95 -50.1,23.85c-12.6,15.9 -18.9,35.95 -18.9,60.15c0,24.2 6.3,44.25 18.9,60.15c12.6,15.9 29.25,23.85 49.95,23.85c20.7,0 39.25,-8.6 55.65,-25.8l18.3,15c-17.8,23.2 -42,34.8 -72.6,34.8c-30.6,0 -54.45,-9.95 -71.55,-29.85c-17.1,-19.9 -25.65,-45.75 -25.65,-77.55c0,-31.8 8.6,-57.85 25.8,-78.15c17.2,-20.3 40.6,-30.45 70.2,-30.45c18.2,0 34.1,5.15 47.7,15.45c13.6,10.3 20.4,23.65 20.4,40.05c0,12 -3.2,22.2 -9.6,30.6Z" style="fill:#fff;fill-rule:nonzero;"/><path d="M236.6,532.966c-13.8,0 -24.6,-3.95 -32.4,-11.85c-7.8,-7.9 -11.7,-18.5 -11.7,-31.8c0,-13.3 5.2,-24.45 15.6,-33.45c10.4,-9 25.8,-13.5 46.2,-13.5l32.7,0l0,-15.3c0,-18.4 -8.8,-27.6 -26.4,-27.6c-14.8,0 -28.4,1.8 -40.8,5.4l0,20.1l-21,0l0,-35.7c9,-3.8 19.65,-6.8 31.95,-9c12.3,-2.2 22.55,-3.3 30.75,-3.3c16,0 28.5,4.55 37.5,13.65c9,9.1 13.5,21.25 13.5,36.45l0,84.9l24.6,0l0,12.6c-7.4,4.6 -15.9,6.9 -25.5,6.9c-9.6,0 -16.1,-1.6 -19.5,-4.8c-3.4,-3.2 -5.1,-8.6 -5.1,-16.2c-15,15 -31.8,22.5 -50.4,22.5ZM239.3,510.466c17.2,0 33.1,-9.7 47.7,-29.1l0,-19.2l-33,0c-12.2,0 -21.25,2.4 -27.15,7.2c-5.9,4.8 -8.85,10.85 -8.85,18.15c0,7.3 1.8,12.95 5.4,16.95c3.6,4 8.9,6 15.9,6Z" style="fill:#fff;fill-rule:nonzero;"/><path d="M346.1,399.466l0,-19.5l42.9,0l4.2,18.3c12,-14.2 27.4,-21.3 46.2,-21.3c18.8,0 33.3,7.25 43.5,21.75c10.2,14.5 15.3,33.1 15.3,55.8c0,22.7 -6,41.45 -18,56.25c-12,14.8 -29.1,22.2 -51.3,22.2c-10.4,0 -21.8,-2 -34.2,-6l0,48l23.1,0l0,19.5l-71.7,0l0,-19.5l23.1,0l0,-175.5l-23.1,0ZM462.8,415.366c-6.6,-10.6 -15.85,-15.9 -27.75,-15.9c-11.9,0 -21.6,4.7 -29.1,14.1c-7.5,9.4 -11.25,20.7 -11.25,33.9l0,53.7c10.8,6.2 21.5,9.3 32.1,9.3c13.8,0 24.9,-4.95 33.3,-14.85c8.4,-9.9 12.6,-23.1 12.6,-39.6c0,-16.5 -3.3,-30.05 -9.9,-40.65Z" style="fill:#fff;fill-rule:nonzero;"/><path d="M561.8,532.966c-13.8,0 -24.6,-3.95 -32.4,-11.85c-7.8,-7.9 -11.7,-18.5 -11.7,-31.8c0,-13.3 5.2,-24.45 15.6,-33.45c10.4,-9 25.8,-13.5 46.2,-13.5l32.7,0l0,-15.3c0,-18.4 -8.8,-27.6 -26.4,-27.6c-14.8,0 -28.4,1.8 -40.8,5.4l0,20.1l-21,0l0,-35.7c9,-3.8 19.65,-6.8 31.95,-9c12.3,-2.2 22.55,-3.3 30.75,-3.3c16,0 28.5,4.55 37.5,13.65c9,9.1 13.5,21.25 13.5,36.45l0,84.9l24.6,0l0,12.6c-7.4,4.6 -15.9,6.9 -25.5,6.9c-9.6,0 -16.1,-1.6 -19.5,-4.8c-3.4,-3.2 -5.1,-8.6 -5.1,-16.2c-15,15 -31.8,22.5 -50.4,22.5ZM564.5,510.466c17.2,0 33.1,-9.7 47.7,-29.1l0,-19.2l-33,0c-12.2,0 -21.25,2.4 -27.15,7.2c-5.9,4.8 -8.85,10.85 -8.85,18.15c0,7.3 1.8,12.95 5.4,16.95c3.6,4 8.9,6 15.9,6Z" style="fill:#fff;fill-rule:nonzero;"/><path d="M693.95,399.016c12.1,-14.7 28.25,-22.05 48.45,-22.05c20.2,0 37.1,4.1 50.7,12.3l0,35.7l-21,0l0,-20.1c-8.6,-3.6 -17.7,-5.4 -27.3,-5.4c-13.8,0 -24.5,5.2 -32.1,15.6c-7.6,10.4 -11.4,23.7 -11.4,39.9c0,16.2 3.8,29.5 11.4,39.9c7.6,10.4 18.3,15.6 32.1,15.6c7.8,0 14.9,-0.95 21.3,-2.85c6.4,-1.9 10.7,-3.5 12.9,-4.8c2.2,-1.3 5.6,-3.55 10.2,-6.75l11.1,16.8c-14.2,13.4 -32.45,20.1 -54.75,20.1c-22.3,0 -39.5,-7.35 -51.6,-22.05c-12.1,-14.7 -18.15,-33.35 -18.15,-55.95c0,-22.6 6.05,-41.25 18.15,-55.95Z" style="fill:#fff;fill-rule:nonzero;"/><path d="M817.1,399.466l0,-19.5l48.6,0l0,130.5l26.1,0l0,19.5l-75,0l0,-19.5l23.4,0l0,-111l-23.1,0ZM841.4,348.466c-2.8,-3.2 -4.2,-7.05 -4.2,-11.55c0,-4.5 1.55,-8.45 4.65,-11.85c3.1,-3.4 6.85,-5.1 11.25,-5.1c4.4,0 8,1.6 10.8,4.8c2.8,3.2 4.2,7.05 4.2,11.55c0,4.5 -1.55,8.45 -4.65,11.85c-3.1,3.4 -6.85,5.1 -11.25,5.1c-4.4,0 -8,-1.6 -10.8,-4.8Z" style="fill:#fff;fill-rule:nonzero;"/><path d="M905.3,399.466l0,-16.5l23.1,-3l3,0c6.4,-15 10.7,-28.2 12.9,-39.6l12.6,0l0,39.6l44.7,0l0,19.5l-44.7,0l0,92.1c0,6.8 1.15,11.7 3.45,14.7c2.3,3 6.25,4.5 11.85,4.5c5.6,0 13.1,-1.9 22.5,-5.7l9.9,17.1c-11.4,7.2 -23.6,10.8 -36.6,10.8c-13,0 -22.35,-3.4 -28.05,-10.2c-5.7,-6.8 -8.55,-15.6 -8.55,-26.4l0,-96.9l-26.1,0Z" style="fill:#fff;fill-rule:nonzero;"/><path d="M1021.1,454.966c0,-22.6 6.3,-41.25 18.9,-55.95c12.6,-14.7 30.3,-22.05 53.1,-22.05c22.8,0 40.5,7.35 53.1,22.05c12.6,14.7 18.9,33.35 18.9,55.95c0,22.6 -6.3,41.25 -18.9,55.95c-12.6,14.7 -30.3,22.05 -53.1,22.05c-22.8,0 -40.5,-7.35 -53.1,-22.05c-12.6,-14.7 -18.9,-33.35 -18.9,-55.95ZM1046.6,454.966c0,16.2 4.1,29.5 12.3,39.9c8.2,10.4 19.6,15.6 34.2,15.6c14.6,0 26,-5.2 34.2,-15.6c8.2,-10.4 12.3,-23.7 12.3,-39.9c0,-16.2 -4.1,-29.5 -12.3,-39.9c-8.2,-10.4 -19.6,-15.6 -34.2,-15.6c-14.6,0 -26,5.2 -34.2,15.6c-8.2,10.4 -12.3,23.7 -12.3,39.9Z" style="fill:#fff;fill-rule:nonzero;"/><path d="M1230.2,510.466l26.1,0l0,19.5l-74.7,0l0,-19.5l23.1,0l0,-111l-23.1,0l0,-19.5l42.9,0l3.6,15.9c6.8,-3.8 12.3,-6.75 16.5,-8.85c4.2,-2.1 10.25,-4.3 18.15,-6.6c7.9,-2.3 15.55,-3.45 22.95,-3.45l16.8,4.5l-6.9,24.6l-13.5,-3.6c-16.8,0 -34.1,4.2 -51.9,12.6l0,95.4Z" style="fill:#fff;fill-rule:nonzero;"/><g><rect x="9.5" y="792.509" width="1293" height="29.923" style="fill:#ffbc44;"/><rect x="641.5" y="792.509" width="29" height="266.491" style="fill:#ffbc44;"/></g><g><rect x="9.5" y="240.568" width="1293" height="29.923" style="fill:#ffbc44;"/><rect x="641.5" y="4" width="29" height="266.491" style="fill:#ffbc44;"/></g><path d="M30.2053,653.343l-23.1808,0l0,-8.41071l57.4396,0l0,8.41071l-23.2784,0l0,66.0143l-10.9804,0l0,-66.0143Z" style="fill:#fff;fill-rule:nonzero;"/><path d="M76.9573,663.71l10.7364,0l0,55.6476l-10.7364,0l0,-55.6476ZM84.9364,652.928c-0.959766,0.374896 -1.91953,0.562344 -2.8793,0.562344c-0.959766,0 -1.85446,-0.154848 -2.68409,-0.464545c-0.829628,-0.309697 -1.56979,-0.757942 -2.22048,-1.34474c-1.36645,-1.23879 -2.04967,-2.61612 -2.04967,-4.13201c0,-1.51588 0.227741,-2.73837 0.683223,-3.66746c0.455482,-0.92909 1.05737,-1.73593 1.80566,-2.42052c1.59419,-1.46698 3.18838,-2.20048 4.78256,-2.20048c1.59419,0 2.82236,0.171148 3.68453,0.513445c0.862163,0.342296 1.56979,0.823141 2.12287,1.44253c1.13871,1.17359 1.70806,2.52647 1.70806,4.05866c0,1.53218 -0.219607,2.76282 -0.658822,3.69191c-0.439215,0.92909 -1.02483,1.72778 -1.75686,2.39607c-0.732025,0.668293 -1.57792,1.18989 -2.53769,1.56478Z" style="fill:#fff;fill-rule:nonzero;"/><path d="M105.701,663.71l9.56513,0l0.0488017,5.86794c4.06681,-2.80357 8.62163,-4.82475 13.6645,-6.06354c2.11474,-0.488995 4.48975,-0.733492 7.12504,-0.733492c6.14901,0 10.3297,2.33088 12.542,6.99263c3.90413,-2.96657 8.58909,-5.06925 14.0549,-6.30803c2.04967,-0.456395 4.27828,-0.684593 6.68583,-0.684593c2.40755,0 4.63616,0.342296 6.68583,1.02689c2.04967,0.684593 3.74146,1.89078 5.07537,3.61856c2.60276,3.32516 3.90413,8.9975 3.90413,17.017l0,34.9142l-10.7364,0l0,-34.7675c0,-4.82475 -0.618154,-8.13361 -1.85446,-9.92659c-1.33391,-1.95598 -3.74146,-2.93397 -7.22265,-2.93397c-5.14044,0 -10.0369,1.67888 -14.6893,5.03665c0.29281,2.24938 0.439215,4.80845 0.439215,7.67722l0,34.9142l-10.7364,0l0,-34.7675c0,-4.82475 -0.618154,-8.13361 -1.85446,-9.92659c-1.33391,-1.95598 -3.74146,-2.93397 -7.22265,-2.93397c-3.54625,0 -7.28771,0.994289 -11.2244,2.98287c-1.23631,0.619393 -2.40755,1.33659 -3.51372,2.15158l0,42.4936l-10.7364,0l0,-55.6476Z" style="fill:#fff;fill-rule:nonzero;"/><path d="M208.575,693.832c0.488017,9.6495 4.03427,15.4196 10.6388,17.3104c1.9846,0.586794 3.774,0.880191 5.36818,0.880191c1.59419,0 3.0501,-0.0814991 4.36775,-0.244497c1.31764,-0.162998 2.62716,-0.374896 3.92853,-0.635693c3.0257,-0.651993 5.22178,-1.36919 6.58822,-2.15158l2.04967,6.16133c-2.70036,2.21678 -7.22265,3.74896 -13.5669,4.59655c-1.82193,0.260797 -3.56252,0.391196 -5.22178,0.391196c-7.87333,0 -13.9573,-2.54277 -18.2518,-7.62832c-4.26201,-5.02035 -6.39302,-12.0619 -6.39302,-21.1246c0,-8.37811 2.09847,-15.1262 6.29541,-20.2444c4.55482,-5.54194 10.834,-8.31291 18.8374,-8.31291c5.69353,0 10.346,1.72778 13.9573,5.18334c3.9692,3.87936 6.05141,9.1605 6.24661,15.8434c0,4.95515 -0.178939,8.28031 -0.536818,9.97549l-34.3076,0ZM233.415,684.541c0,-9.3887 -3.69266,-14.083 -11.078,-14.083c-7.8408,0 -12.3468,5.41154 -13.5181,16.2346l24.5472,0c0.0325344,-0.717192 0.0488017,-1.43438 0.0488017,-2.15158Z" style="fill:#fff;fill-rule:nonzero;"/><path d="M306.374,653.343l-23.1808,0l0,-8.41071l57.4396,0l0,8.41071l-23.2784,0l0,66.0143l-10.9804,0l0,-66.0143Z" style="fill:#fff;fill-rule:nonzero;"/><path d="M374.794,672.219c-4.65242,0 -8.70296,1.54848 -12.1516,4.64545l0,42.4936l-10.7364,0l0,-55.6476l9.02831,0l0.683223,6.16133c2.14727,-2.83617 5.61219,-4.95515 10.3948,-6.35693c1.56165,-0.488995 3.38358,-0.733492 5.46579,-0.733492c2.0822,0 3.62759,0.228198 4.63616,0.684593l0,10.0733c-1.75686,-0.880191 -4.19694,-1.32029 -7.32025,-1.32029Z" style="fill:#fff;fill-rule:nonzero;"/><path d="M389.532,711.02c-0.845895,-1.93968 -1.26884,-4.4254 -1.26884,-7.45717c0,-3.03177 0.976033,-5.81904 2.9281,-8.36181c4.09934,-5.34634 12.1028,-8.44331 24.0104,-9.2909c1.82193,-0.130399 3.51372,-0.195598 5.07537,-0.195598l0,-5.62344c0,-3.74896 -0.976033,-6.27543 -2.9281,-7.57942c-1.62672,-1.07579 -4.60362,-1.61368 -8.9307,-1.61368c-3.74146,0 -7.85707,0.89649 -12.3468,2.68947c-1.17124,0.456395 -2.06594,0.91279 -2.68409,1.36919l-2.63529,-7.04152c2.79796,-1.76038 7.43412,-3.25997 13.9085,-4.49875c2.21234,-0.423795 4.59549,-0.635693 7.14944,-0.635693c2.55395,0 5.04284,0.236347 7.46665,0.709042c2.42382,0.472695 4.51415,1.36104 6.27101,2.66502c3.64386,2.73837 5.46579,7.53052 5.46579,14.3764l0,39.6086l-4.39215,0c-2.0822,0 -3.43238,-0.195598 -4.05054,-0.586794c-1.10617,-0.749792 -1.65926,-2.24938 -1.65926,-4.49875l0,-0.391196c-2.66782,2.44497 -6.26288,4.10756 -10.7852,4.98775c-1.56165,0.325997 -3.37545,0.488995 -5.44139,0.488995c-2.06594,0 -4.14001,-0.358596 -6.22221,-1.07579c-2.0822,-0.717192 -3.87973,-1.75223 -5.39258,-3.10512c-1.51285,-1.35289 -2.69222,-2.99917 -3.53812,-4.93885ZM398.853,703.514c0,5.73754 3.20464,8.60631 9.61393,8.60631c3.54625,0 6.92984,-0.92909 10.1507,-2.78727c0.813361,-0.456395 1.36645,-0.847591 1.65926,-1.17359l0,-15.5989c-3.80653,0 -7.04371,0.325997 -9.71153,0.97799c-2.66782,0.651993 -4.48162,1.20619 -5.44139,1.66258c-0.959766,0.456395 -1.8138,0.93724 -2.56209,1.44253c-0.748292,0.505295 -1.39898,1.10024 -1.95207,1.78483c-1.17124,1.40179 -1.75686,3.09697 -1.75686,5.08555Z" style="fill:#fff;fill-rule:nonzero;"/><path d="M482.45,674.224c-2.89557,-2.05378 -7.05997,-3.08067 -12.4932,-3.08067c-4.26201,0 -7.82453,1.46698 -10.6876,4.40095c-3.54625,3.68376 -5.31938,9.0627 -5.31938,16.1368c0,6.09613 1.43965,11.0105 4.31895,14.7432c2.8793,3.73266 6.67769,5.59899 11.3952,5.59899c3.70893,0 7.35278,-0.717192 10.9316,-2.15158c0.943499,-0.358596 1.72433,-0.733492 2.34248,-1.12469l2.19607,6.11243c-3.80653,3.52076 -9.50006,5.28114 -17.0806,5.28114c-7.61306,0 -13.6482,-2.68947 -18.1054,-8.06841c-4.22948,-5.08555 -6.34422,-11.7522 -6.34422,-19.9999c0,-8.57371 2.24488,-15.5011 6.73463,-20.7823c4.78256,-5.63974 11.5009,-8.45961 20.1551,-8.45961c6.11647,0 10.6713,0.96169 13.6645,2.88507l-1.70806,8.50851Z" style="fill:#fff;fill-rule:nonzero;"/><path d="M495.968,638.136l10.7364,0l0,44.4985l-0.195207,5.47674l22.2048,-24.4986l12.6396,0l-20.9847,21.9559l23.5712,33.7895l-12.2004,0l-18.3982,-26.4546l-6.88103,7.18822l0.244008,8.36181l0,10.9046l-10.7364,0l0,-81.222Z" style="fill:#fff;fill-rule:nonzero;"/><path d="M553.945,663.71l10.7364,0l0,55.6476l-10.7364,0l0,-55.6476ZM561.924,652.928c-0.959766,0.374896 -1.91953,0.562344 -2.8793,0.562344c-0.959766,0 -1.85446,-0.154848 -2.68409,-0.464545c-0.829628,-0.309697 -1.56979,-0.757942 -2.22048,-1.34474c-1.36645,-1.23879 -2.04967,-2.61612 -2.04967,-4.13201c0,-1.51588 0.227741,-2.73837 0.683223,-3.66746c0.455482,-0.92909 1.05737,-1.73593 1.80566,-2.42052c1.59419,-1.46698 3.18838,-2.20048 4.78256,-2.20048c1.59419,0 2.82236,0.171148 3.68453,0.513445c0.862163,0.342296 1.56979,0.823141 2.12287,1.44253c1.13871,1.17359 1.70806,2.52647 1.70806,4.05866c0,1.53218 -0.219607,2.76282 -0.658822,3.69191c-0.439215,0.92909 -1.02483,1.72778 -1.75686,2.39607c-0.732025,0.668293 -1.57792,1.18989 -2.53769,1.56478Z" style="fill:#fff;fill-rule:nonzero;"/><path d="M582.689,663.71l9.56513,0l0.0488017,5.86794c4.06681,-2.80357 8.6867,-4.82475 13.8597,-6.06354c2.14727,-0.488995 4.39215,-0.733492 6.73463,-0.733492c2.34248,0 4.52229,0.350446 6.53942,1.05134c2.01714,0.700893 3.69266,1.91523 5.02657,3.64301c2.50515,3.29256 3.75773,9.0138 3.75773,17.1637l0,34.7186l-10.7364,0l0,-34.7675c0,-4.88995 -0.650689,-8.26401 -1.95207,-10.1222c-1.30138,-1.89078 -3.64386,-2.83617 -7.02744,-2.83617c-3.67639,0 -7.53172,1.02689 -11.566,3.08067c-1.23631,0.619393 -2.40755,1.33659 -3.51372,2.15158l0,42.4936l-10.7364,0l0,-55.6476Z" style="fill:#fff;fill-rule:nonzero;"/><path d="M658.283,699.945c-2.0822,1.49958 -3.12331,3.35776 -3.12331,5.57454c0,2.08638 0.357879,3.42296 1.07364,4.00976c1.13871,0.91279 2.89557,1.36919 5.27058,1.36919l10.1019,0c7.7432,0 13.2741,1.62998 16.5926,4.88995c2.60276,2.54277 3.90413,6.09613 3.90413,10.6601c0,5.44414 -2.65156,9.89399 -7.95467,13.3496c-5.04284,3.22737 -11.4033,4.84105 -19.0814,4.84105c-11.1268,0 -18.3006,-3.04807 -21.5215,-9.1442c-1.10617,-2.05378 -1.65926,-4.13201 -1.65926,-6.23468c0,-2.10268 0.235875,-3.74081 0.707624,-4.9144c0.471749,-1.17359 1.08177,-2.24938 1.83006,-3.22737c1.30138,-1.66258 3.04197,-3.09697 5.22178,-4.30315c-2.86303,-1.62998 -4.29455,-4.41725 -4.29455,-8.36181c0.0650689,-1.85818 0.683223,-3.74081 1.85446,-5.64789c1.17124,-1.90708 2.8305,-3.59411 4.97777,-5.0611c-2.96063,-1.56478 -5.30311,-3.68376 -7.02744,-6.35693c-1.72433,-2.67317 -2.58649,-5.70494 -2.58649,-9.0953c0,-3.39036 0.561219,-6.27543 1.68366,-8.65521c1.12244,-2.37977 2.67596,-4.35205 4.66056,-5.91684c4.03427,-3.25997 9.51632,-4.88995 16.4462,-4.88995c5.10791,0 9.53259,1.12469 13.2741,3.37406c2.96063,-1.98858 6.42555,-2.98287 10.3948,-2.98287l5.41698,0l0,8.55741l-10.1995,0c1.65926,2.83617 2.48888,5.93314 2.48888,9.2909c0,3.35776 -0.577486,6.22653 -1.73246,8.60631c-1.15497,2.37977 -2.74103,4.38465 -4.75816,6.01464c-4.03427,3.25997 -9.33738,4.88995 -15.9093,4.88995c-2.21234,0 -4.22948,-0.211898 -6.05141,-0.635693ZM676.046,681.852c0,-7.82392 -3.66012,-11.7359 -10.9804,-11.7359c-5.53085,0 -9.14218,1.90708 -10.834,5.72124c-0.650689,1.49958 -0.976033,3.22737 -0.976033,5.18334c0,1.95598 0.211474,3.64301 0.634422,5.0611c0.422948,1.41808 1.0899,2.66502 2.00087,3.74081c1.9846,2.37977 4.88017,3.56966 8.6867,3.56966c5.72606,0 9.28858,-2.00488 10.6876,-6.01464c0.520551,-1.46698 0.780827,-3.30886 0.780827,-5.52564ZM655.891,719.015c-2.37501,2.05378 -3.56252,4.69435 -3.56252,7.92172c0,5.18334 2.35875,8.39441 7.07624,9.6332c1.65926,0.456395 3.62759,0.684593 5.905,0.684593c2.27741,0 4.40028,-0.179298 6.36862,-0.537894c1.96833,-0.358596 3.71706,-0.89649 5.24618,-1.61368c3.28598,-1.49958 4.92897,-3.60226 4.92897,-6.30803c0,-3.25997 -0.894697,-5.59084 -2.68409,-6.99263c-2.0822,-1.62998 -5.77486,-2.44497 -11.078,-2.44497l-4.97777,0c-3.41612,0 -5.82366,-0.114099 -7.22265,-0.342296Z" style="fill:#fff;fill-rule:nonzero;"/><path d="M737.341,644.933l4.73376,0c2.44008,0 5.30311,-0.130399 8.58909,-0.391196c3.28598,-0.260797 6.7753,-0.391196 10.468,-0.391196c3.69266,0 7.09251,0.391196 10.1995,1.17359c3.10704,0.782392 5.76673,2.02118 7.97907,3.71636c4.65242,3.55336 6.97864,8.89971 6.97864,16.039c0,5.47674 -1.19564,9.91844 -3.58692,13.3251c-2.39128,3.40666 -5.66913,5.84349 -9.83353,7.31047c2.76543,1.89078 5.62846,6.06354 8.58909,12.5183c0.845895,1.79298 1.65926,3.58596 2.44008,5.37894c2.60276,6.06354 5.17298,11.3121 7.71066,15.7456l-12.3468,0c-0.455482,-0.651993 -0.927232,-1.53218 -1.41525,-2.64057c-0.488017,-1.10839 -0.9923,-2.21678 -1.51285,-3.32516c-0.520551,-1.10839 -1.10617,-2.54277 -1.75686,-4.30315c-0.650689,-1.76038 -1.33391,-3.54521 -2.04967,-5.35449c-0.715758,-1.80928 -1.46405,-3.58596 -2.24488,-5.33004c-0.780827,-1.74408 -1.62672,-3.34961 -2.53769,-4.8166c-2.01714,-3.22737 -4.21321,-5.23224 -6.58822,-6.01464c-1.46405,0.0651993 -3.22091,0.097799 -5.27058,0.097799l-7.66186,0l0,31.6869l-10.8828,0l0,-74.425ZM758.082,652.17c-3.774,0 -7.05997,0.293397 -9.85794,0.880191l0,26.8947c1.56165,0.195598 3.69266,0.293397 6.39302,0.293397l5.07537,0c10.3134,0 15.4701,-4.87365 15.4701,-14.6209c0,-4.72695 -1.18751,-8.13361 -3.56252,-10.22c-2.50515,-2.15158 -7.01117,-3.22737 -13.5181,-3.22737Z" style="fill:#fff;fill-rule:nonzero;"/><path d="M809.812,693.832c0.488017,9.6495 4.03427,15.4196 10.6388,17.3104c1.9846,0.586794 3.774,0.880191 5.36818,0.880191c1.59419,0 3.0501,-0.0814991 4.36775,-0.244497c1.31764,-0.162998 2.62716,-0.374896 3.92853,-0.635693c3.0257,-0.651993 5.22178,-1.36919 6.58822,-2.15158l2.04967,6.16133c-2.70036,2.21678 -7.22265,3.74896 -13.5669,4.59655c-1.82193,0.260797 -3.56252,0.391196 -5.22178,0.391196c-7.87333,0 -13.9573,-2.54277 -18.2518,-7.62832c-4.26201,-5.02035 -6.39302,-12.0619 -6.39302,-21.1246c0,-8.37811 2.09847,-15.1262 6.29541,-20.2444c4.55482,-5.54194 10.834,-8.31291 18.8374,-8.31291c5.69353,0 10.346,1.72778 13.9573,5.18334c3.9692,3.87936 6.05141,9.1605 6.24661,15.8434c0,4.95515 -0.178939,8.28031 -0.536818,9.97549l-34.3076,0ZM834.652,684.541c0,-9.3887 -3.69266,-14.083 -11.078,-14.083c-7.8408,0 -12.3468,5.41154 -13.5181,16.2346l24.5472,0c0.0325344,-0.717192 0.0488017,-1.43438 0.0488017,-2.15158Z" style="fill:#fff;fill-rule:nonzero;"/><path d="M858.809,663.71l10.7364,0l0,55.6476l-10.7364,0l0,-55.6476ZM866.788,652.928c-0.959766,0.374896 -1.91953,0.562344 -2.8793,0.562344c-0.959766,0 -1.85446,-0.154848 -2.68409,-0.464545c-0.829628,-0.309697 -1.56979,-0.757942 -2.22048,-1.34474c-1.36645,-1.23879 -2.04967,-2.61612 -2.04967,-4.13201c0,-1.51588 0.227741,-2.73837 0.683223,-3.66746c0.455482,-0.92909 1.05737,-1.73593 1.80566,-2.42052c1.59419,-1.46698 3.18838,-2.20048 4.78256,-2.20048c1.59419,0 2.82236,0.171148 3.68453,0.513445c0.862163,0.342296 1.56979,0.823141 2.12287,1.44253c1.13871,1.17359 1.70806,2.52647 1.70806,4.05866c0,1.53218 -0.219607,2.76282 -0.658822,3.69191c-0.439215,0.92909 -1.02483,1.72778 -1.75686,2.39607c-0.732025,0.668293 -1.57792,1.18989 -2.53769,1.56478Z" style="fill:#fff;fill-rule:nonzero;"/><path d="M887.553,663.71l9.56513,0l0.0488017,5.86794c4.06681,-2.80357 8.62163,-4.82475 13.6645,-6.06354c2.11474,-0.488995 4.48975,-0.733492 7.12504,-0.733492c6.14901,0 10.3297,2.33088 12.542,6.99263c3.90413,-2.96657 8.58909,-5.06925 14.0549,-6.30803c2.04967,-0.456395 4.27828,-0.684593 6.68583,-0.684593c2.40755,0 4.63616,0.342296 6.68583,1.02689c2.04967,0.684593 3.74146,1.89078 5.07537,3.61856c2.60276,3.32516 3.90413,8.9975 3.90413,17.017l0,34.9142l-10.7364,0l0,-34.7675c0,-4.82475 -0.618154,-8.13361 -1.85446,-9.92659c-1.33391,-1.95598 -3.74146,-2.93397 -7.22265,-2.93397c-5.14044,0 -10.0369,1.67888 -14.6893,5.03665c0.29281,2.24938 0.439215,4.80845 0.439215,7.67722l0,34.9142l-10.7364,0l0,-34.7675c0,-4.82475 -0.618154,-8.13361 -1.85446,-9.92659c-1.33391,-1.95598 -3.74146,-2.93397 -7.22265,-2.93397c-3.54625,0 -7.28771,0.994289 -11.2244,2.98287c-1.23631,0.619393 -2.40755,1.33659 -3.51372,2.15158l0,42.4936l-10.7364,0l0,-55.6476Z" style="fill:#fff;fill-rule:nonzero;"/><path d="M981.057,711.02c-0.845895,-1.93968 -1.26884,-4.4254 -1.26884,-7.45717c0,-3.03177 0.976033,-5.81904 2.9281,-8.36181c4.09934,-5.34634 12.1028,-8.44331 24.0104,-9.2909c1.82193,-0.130399 3.51372,-0.195598 5.07537,-0.195598l0,-5.62344c0,-3.74896 -0.976033,-6.27543 -2.9281,-7.57942c-1.62672,-1.07579 -4.60362,-1.61368 -8.9307,-1.61368c-3.74146,0 -7.85707,0.89649 -12.3468,2.68947c-1.17124,0.456395 -2.06594,0.91279 -2.68409,1.36919l-2.63529,-7.04152c2.79796,-1.76038 7.43412,-3.25997 13.9085,-4.49875c2.21234,-0.423795 4.59549,-0.635693 7.14944,-0.635693c2.55395,0 5.04284,0.236347 7.46665,0.709042c2.42382,0.472695 4.51415,1.36104 6.27101,2.66502c3.64386,2.73837 5.46579,7.53052 5.46579,14.3764l0,39.6086l-4.39215,0c-2.0822,0 -3.43238,-0.195598 -4.05054,-0.586794c-1.10617,-0.749792 -1.65926,-2.24938 -1.65926,-4.49875l0,-0.391196c-2.66782,2.44497 -6.26288,4.10756 -10.7852,4.98775c-1.56165,0.325997 -3.37545,0.488995 -5.44139,0.488995c-2.06594,0 -4.14001,-0.358596 -6.22221,-1.07579c-2.0822,-0.717192 -3.87973,-1.75223 -5.39258,-3.10512c-1.51285,-1.35289 -2.69222,-2.99917 -3.53812,-4.93885ZM990.378,703.514c0,5.73754 3.20464,8.60631 9.61393,8.60631c3.54625,0 6.92984,-0.92909 10.1507,-2.78727c0.813361,-0.456395 1.36645,-0.847591 1.65926,-1.17359l0,-15.5989c-3.80653,0 -7.04371,0.325997 -9.71153,0.97799c-2.66782,0.651993 -4.48162,1.20619 -5.44139,1.66258c-0.959766,0.456395 -1.8138,0.93724 -2.56209,1.44253c-0.748292,0.505295 -1.39898,1.10024 -1.95207,1.78483c-1.17124,1.40179 -1.75686,3.09697 -1.75686,5.08555Z" style="fill:#fff;fill-rule:nonzero;"/><path d="M1052.16,699.945c-2.0822,1.49958 -3.12331,3.35776 -3.12331,5.57454c0,2.08638 0.357879,3.42296 1.07364,4.00976c1.13871,0.91279 2.89557,1.36919 5.27058,1.36919l10.1019,0c7.7432,0 13.2741,1.62998 16.5926,4.88995c2.60276,2.54277 3.90413,6.09613 3.90413,10.6601c0,5.44414 -2.65156,9.89399 -7.95467,13.3496c-5.04284,3.22737 -11.4033,4.84105 -19.0814,4.84105c-11.1268,0 -18.3006,-3.04807 -21.5215,-9.1442c-1.10617,-2.05378 -1.65926,-4.13201 -1.65926,-6.23468c0,-2.10268 0.235875,-3.74081 0.707624,-4.9144c0.471749,-1.17359 1.08177,-2.24938 1.83006,-3.22737c1.30138,-1.66258 3.04197,-3.09697 5.22178,-4.30315c-2.86303,-1.62998 -4.29455,-4.41725 -4.29455,-8.36181c0.0650689,-1.85818 0.683223,-3.74081 1.85446,-5.64789c1.17124,-1.90708 2.8305,-3.59411 4.97777,-5.0611c-2.96063,-1.56478 -5.30311,-3.68376 -7.02744,-6.35693c-1.72433,-2.67317 -2.58649,-5.70494 -2.58649,-9.0953c0,-3.39036 0.561219,-6.27543 1.68366,-8.65521c1.12244,-2.37977 2.67596,-4.35205 4.66056,-5.91684c4.03427,-3.25997 9.51632,-4.88995 16.4462,-4.88995c5.10791,0 9.53259,1.12469 13.2741,3.37406c2.96063,-1.98858 6.42555,-2.98287 10.3948,-2.98287l5.41698,0l0,8.55741l-10.1995,0c1.65926,2.83617 2.48888,5.93314 2.48888,9.2909c0,3.35776 -0.577486,6.22653 -1.73246,8.60631c-1.15497,2.37977 -2.74103,4.38465 -4.75816,6.01464c-4.03427,3.25997 -9.33738,4.88995 -15.9093,4.88995c-2.21234,0 -4.22948,-0.211898 -6.05141,-0.635693ZM1069.92,681.852c0,-7.82392 -3.66012,-11.7359 -10.9804,-11.7359c-5.53085,0 -9.14218,1.90708 -10.834,5.72124c-0.650689,1.49958 -0.976033,3.22737 -0.976033,5.18334c0,1.95598 0.211474,3.64301 0.634422,5.0611c0.422948,1.41808 1.0899,2.66502 2.00087,3.74081c1.9846,2.37977 4.88017,3.56966 8.6867,3.56966c5.72606,0 9.28858,-2.00488 10.6876,-6.01464c0.520551,-1.46698 0.780827,-3.30886 0.780827,-5.52564ZM1049.77,719.015c-2.37501,2.05378 -3.56252,4.69435 -3.56252,7.92172c0,5.18334 2.35875,8.39441 7.07624,9.6332c1.65926,0.456395 3.62759,0.684593 5.905,0.684593c2.27741,0 4.40028,-0.179298 6.36862,-0.537894c1.96833,-0.358596 3.71706,-0.89649 5.24618,-1.61368c3.28598,-1.49958 4.92897,-3.60226 4.92897,-6.30803c0,-3.25997 -0.894697,-5.59084 -2.68409,-6.99263c-2.0822,-1.62998 -5.77486,-2.44497 -11.078,-2.44497l-4.97777,0c-3.41612,0 -5.82366,-0.114099 -7.22265,-0.342296Z" style="fill:#fff;fill-rule:nonzero;"/><path d="M1099.21,663.71l10.7364,0l0,55.6476l-10.7364,0l0,-55.6476ZM1107.18,652.928c-0.959766,0.374896 -1.91953,0.562344 -2.8793,0.562344c-0.959766,0 -1.85446,-0.154848 -2.68409,-0.464545c-0.829628,-0.309697 -1.56979,-0.757942 -2.22048,-1.34474c-1.36645,-1.23879 -2.04967,-2.61612 -2.04967,-4.13201c0,-1.51588 0.227741,-2.73837 0.683223,-3.66746c0.455482,-0.92909 1.05737,-1.73593 1.80566,-2.42052c1.59419,-1.46698 3.18838,-2.20048 4.78256,-2.20048c1.59419,0 2.82236,0.171148 3.68453,0.513445c0.862163,0.342296 1.56979,0.823141 2.12287,1.44253c1.13871,1.17359 1.70806,2.52647 1.70806,4.05866c0,1.53218 -0.219607,2.76282 -0.658822,3.69191c-0.439215,0.92909 -1.02483,1.72778 -1.75686,2.39607c-0.732025,0.668293 -1.57792,1.18989 -2.53769,1.56478Z" style="fill:#fff;fill-rule:nonzero;"/><path d="M1127.95,663.71l9.56513,0l0.0488017,5.86794c4.06681,-2.80357 8.6867,-4.82475 13.8597,-6.06354c2.14727,-0.488995 4.39215,-0.733492 6.73463,-0.733492c2.34248,0 4.52229,0.350446 6.53942,1.05134c2.01714,0.700893 3.69266,1.91523 5.02657,3.64301c2.50515,3.29256 3.75773,9.0138 3.75773,17.1637l0,34.7186l-10.7364,0l0,-34.7675c0,-4.88995 -0.650689,-8.26401 -1.95207,-10.1222c-1.30138,-1.89078 -3.64386,-2.83617 -7.02744,-2.83617c-3.67639,0 -7.53172,1.02689 -11.566,3.08067c-1.23631,0.619393 -2.40755,1.33659 -3.51372,2.15158l0,42.4936l-10.7364,0l0,-55.6476Z" style="fill:#fff;fill-rule:nonzero;"/><path d="M1197,693.832c0.488017,9.6495 4.03427,15.4196 10.6388,17.3104c1.9846,0.586794 3.774,0.880191 5.36818,0.880191c1.59419,0 3.0501,-0.0814991 4.36775,-0.244497c1.31764,-0.162998 2.62716,-0.374896 3.92853,-0.635693c3.0257,-0.651993 5.22178,-1.36919 6.58822,-2.15158l2.04967,6.16133c-2.70036,2.21678 -7.22265,3.74896 -13.5669,4.59655c-1.82193,0.260797 -3.56252,0.391196 -5.22178,0.391196c-7.87333,0 -13.9573,-2.54277 -18.2518,-7.62832c-4.26201,-5.02035 -6.39302,-12.0619 -6.39302,-21.1246c0,-8.37811 2.09847,-15.1262 6.29541,-20.2444c4.55482,-5.54194 10.834,-8.31291 18.8374,-8.31291c5.69353,0 10.346,1.72778 13.9573,5.18334c3.9692,3.87936 6.05141,9.1605 6.24661,15.8434c0,4.95515 -0.178939,8.28031 -0.536818,9.97549l-34.3076,0ZM1221.84,684.541c0,-9.3887 -3.69266,-14.083 -11.078,-14.083c-7.8408,0 -12.3468,5.41154 -13.5181,16.2346l24.5472,0c0.0325344,-0.717192 0.0488017,-1.43438 0.0488017,-2.15158Z" style="fill:#fff;fill-rule:nonzero;"/><path d="M1278.7,713.881c-4.16441,4.17276 -9.32112,6.25913 -15.4701,6.25913c-6.21408,0 -11.322,-2.18418 -15.3237,-6.55253c-4.39215,-4.75955 -6.58822,-11.4425 -6.58822,-20.0488c0,-9.0953 2.53769,-16.4628 7.61306,-22.1026c5.14044,-5.73754 11.8913,-8.60631 20.2527,-8.60631c3.22091,0 6.24661,0.472695 9.07711,1.41808l-0.146405,-3.03177l0,-23.2273l10.7364,0l0,82.1511l-4.63616,0c-1.91953,0 -3.18838,-0.195598 -3.80653,-0.586794c-1.13871,-0.684593 -1.70806,-1.92338 -1.70806,-3.71636l0,-1.95598ZM1278.11,673.099c-1.85446,-1.62998 -5.18924,-2.44497 -10.0043,-2.44497c-4.61989,0 -8.36135,1.82558 -11.2244,5.47674c-3.09077,3.94456 -4.63616,9.2909 -4.63616,16.039c0,13.0073 4.65242,19.5109 13.9573,19.5109c4.09934,0 8.06854,-1.49958 11.9076,-4.49875l0,-34.0829Z" style="fill:#fff;fill-rule:nonzero;"/></g></g></svg>